<svg xmlns="http://www.w3.org/2000/svg" viewBox="0 0 64 64">
  <!-- Database body -->
  <ellipse cx="32" cy="14" rx="24" ry="8" fill="#4361ee" />
  <path d="M56 14v12c0 4.4-10.7 8-24 8S8 30.4 8 26V14" fill="none" stroke="#4361ee" stroke-width="4" />
  <path d="M56 26v12c0 4.4-10.7 8-24 8S8 42.4 8 38V26" fill="none" stroke="#4361ee" stroke-width="4" />
  <path d="M56 38v12c0 4.4-10.7 8-24 8S8 54.4 8 50V38" fill="none" stroke="#4361ee" stroke-width="4" />
  
  <!-- Data lines -->
  <line x1="16" y1="14" x2="16" y2="50" stroke="#4895ef" stroke-width="1" />
  <line x1="24" y1="14" x2="24" y2="50" stroke="#4895ef" stroke-width="1" />
  <line x1="32" y1="14" x2="32" y2="50" stroke="#4895ef" stroke-width="1" />
  <line x1="40" y1="14" x2="40" y2="50" stroke="#4895ef" stroke-width="1" />
  <line x1="48" y1="14" x2="48" y2="50" stroke="#4895ef" stroke-width="1" />
  
  <!-- Dots representing data -->
  <circle cx="16" cy="20" r="2" fill="#4cc9f0" />
  <circle cx="24" cy="26" r="2" fill="#4cc9f0" />
  <circle cx="32" cy="32" r="2" fill="#4cc9f0" />
  <circle cx="40" cy="38" r="2" fill="#4cc9f0" />
  <circle cx="48" cy="44" r="2" fill="#4cc9f0" />
  <circle cx="24" cy="44" r="2" fill="#4cc9f0" />
  <circle cx="40" cy="20" r="2" fill="#4cc9f0" />
</svg> 